<?xml version="1.0" standalone="no"?>
<!DOCTYPE svg PUBLIC "-//W3C//DTD SVG 20010904//EN"
 "http://www.w3.org/TR/2001/REC-SVG-20010904/DTD/svg10.dtd">
<svg version="1.0" xmlns="http://www.w3.org/2000/svg"
 width="700.000000pt" height="700.000000pt" viewBox="0 0 700.000000 700.000000"
 preserveAspectRatio="xMidYMid meet">
<metadata>
Created by potrace 1.14, written by Peter Selinger 2001-2017
</metadata>
<g transform="translate(0.000000,700.000000) scale(0.100000,-0.100000)"
fill="#000000" stroke="none">
<path d="M6094 6315 c-93 -69 -180 -133 -193 -142 -13 -10 -175 -129 -360
-265 -185 -136 -340 -251 -346 -255 -5 -5 -136 -101 -290 -214 -154 -113 -319
-235 -366 -270 -91 -67 -348 -257 -472 -347 -40 -29 -79 -58 -87 -65 -9 -7
-38 -28 -65 -47 -27 -19 -54 -38 -60 -42 -7 -6 -7 -10 1 -15 9 -7 72 -87 228
-288 17 -22 37 -46 44 -53 7 -8 25 -30 40 -50 15 -20 71 -93 125 -162 124
-158 109 -139 197 -250 41 -52 91 -116 110 -142 33 -44 54 -58 62 -40 2 6 554
409 757 553 103 73 816 590 890 645 3 3 1 164 -4 329 -2 50 -6 196 -10 325 -3
129 -8 289 -10 355 -2 66 -7 219 -10 340 -4 121 -8 221 -9 222 -1 2 -79 -53
-172 -122z"/>
<path d="M360 6102 c0 -3 162 -211 227 -292 35 -43 151 -191 173 -220 14 -18
72 -92 129 -164 104 -132 209 -265 288 -366 23 -30 100 -128 170 -217 226
-285 327 -414 368 -467 78 -102 668 -851 681 -865 11 -12 16 -12 33 0 20 15
252 209 261 219 3 3 30 27 61 52 l55 47 94 -127 c52 -70 193 -260 314 -422
120 -162 286 -385 367 -495 82 -110 152 -204 156 -210 12 -14 112 -149 614
-825 329 -444 390 -526 402 -540 7 -8 34 -45 61 -83 26 -37 51 -65 54 -63 4 2
42 7 84 10 42 4 92 9 110 11 18 2 67 6 108 10 41 3 86 8 100 10 14 2 60 7 103
10 43 4 86 8 95 10 9 1 58 6 107 9 50 4 97 9 105 11 8 2 56 6 105 9 50 4 99 8
111 10 11 2 56 7 100 10 43 4 90 8 104 11 14 2 61 7 105 10 44 3 96 7 115 10
83 10 167 18 193 18 15 0 27 5 27 10 0 5 -41 61 -90 123 -86 109 -262 332
-287 364 -40 51 -116 147 -126 160 -7 8 -28 35 -47 60 -19 25 -40 52 -47 60
-7 8 -56 71 -110 140 -53 69 -100 127 -103 130 -3 3 -27 34 -55 70 -27 36 -55
72 -62 80 -14 18 -97 123 -134 171 -39 49 -211 269 -294 374 -39 50 -129 164
-200 255 -72 91 -135 172 -142 180 -6 8 -53 68 -104 133 -51 64 -96 117 -100
117 -8 0 -82 -52 -304 -215 -38 -28 -84 -61 -101 -72 l-30 -22 -135 171 c-223
284 -419 532 -433 549 -7 8 -64 80 -126 160 -63 79 -206 261 -319 404 -112
143 -217 276 -233 295 -16 19 -32 40 -36 45 -11 14 -181 230 -277 351 -44 55
-161 204 -260 329 -99 126 -211 267 -249 314 -37 47 -74 95 -82 106 -12 17
-27 20 -117 21 -56 1 -343 5 -637 8 -294 4 -626 8 -737 10 -112 1 -203 0 -203
-2z"/>
<path d="M2318 3418 c-46 -40 -149 -127 -228 -193 -78 -66 -148 -125 -154
-130 -6 -6 -65 -55 -131 -110 -66 -55 -131 -110 -145 -122 -78 -66 -252 -214
-294 -248 -27 -22 -58 -48 -70 -58 -11 -10 -30 -26 -41 -35 -11 -10 -65 -55
-120 -101 -55 -46 -125 -105 -155 -131 -30 -26 -102 -86 -160 -134 -58 -48
-110 -95 -117 -104 -7 -11 -14 -94 -18 -227 -6 -208 -9 -278 -19 -570 -4 -82
-8 -220 -11 -305 -3 -85 -7 -204 -10 -265 -2 -60 -7 -193 -10 -295 -4 -102 -8
-187 -10 -190 -2 -3 0 -11 4 -18 7 -12 7 -13 131 98 40 36 94 83 119 105 176
155 251 221 281 249 19 17 76 67 125 111 50 44 95 84 101 90 6 6 35 31 64 56
29 24 64 55 79 69 14 14 62 57 106 95 44 39 97 86 119 105 54 49 57 51 101 90
46 39 184 162 224 198 14 13 53 47 85 75 33 29 128 112 210 186 83 74 165 146
181 160 17 15 55 49 85 76 31 28 87 77 124 110 38 33 87 77 110 97 23 20 107
95 188 165 80 70 148 133 151 138 4 8 -122 174 -321 424 -56 71 -307 390 -390
498 -48 62 -90 112 -93 112 -3 1 -44 -32 -91 -71z"/>
</g>
</svg>
