<?xml version="1.0" standalone="no"?>
<!DOCTYPE svg PUBLIC "-//W3C//DTD SVG 20010904//EN"
 "http://www.w3.org/TR/2001/REC-SVG-20010904/DTD/svg10.dtd">
<svg version="1.0" xmlns="http://www.w3.org/2000/svg"
 width="700.000000pt" height="700.000000pt" viewBox="0 0 700.000000 700.000000"
 preserveAspectRatio="xMidYMid meet">
<metadata>
Created by potrace 1.14, written by Peter Selinger 2001-2017
</metadata>
<g transform="translate(0.000000,700.000000) scale(0.100000,-0.100000)"
fill="#000000" stroke="none">
<path d="M1725 6754 c-181 -102 -355 -200 -385 -217 -77 -43 -778 -438 -1015
-572 -60 -34 -140 -79 -177 -99 -37 -21 -70 -42 -73 -46 -3 -5 108 -206 246
-447 138 -241 263 -458 277 -483 14 -25 50 -88 80 -140 30 -52 66 -115 80
-140 14 -25 59 -103 100 -175 41 -71 86 -151 101 -176 333 -585 428 -748 436
-745 5 1 17 16 26 32 9 16 76 133 149 259 73 127 211 367 308 535 96 168 176
306 177 308 2 2 28 -41 121 -205 13 -23 53 -92 89 -153 36 -61 65 -115 65
-121 0 -5 5 -9 10 -9 6 0 10 -4 10 -9 0 -8 66 -124 280 -496 123 -212 202
-349 265 -460 12 -22 89 -155 170 -295 81 -140 201 -349 268 -465 66 -115 128
-223 139 -240 10 -16 21 -37 25 -45 4 -8 31 -55 60 -104 29 -49 53 -90 53 -92
0 -2 14 -27 31 -56 18 -29 40 -67 49 -84 10 -16 85 -147 167 -290 82 -142 161
-279 175 -304 14 -25 67 -116 117 -204 77 -133 350 -606 419 -726 89 -156 144
-250 147 -250 2 0 43 23 92 51 99 58 275 160 693 401 157 90 377 218 490 283
277 160 577 333 620 357 71 40 100 60 100 67 0 5 -53 100 -118 212 -119 204
-830 1438 -872 1514 -13 22 -33 58 -45 80 -13 22 -49 85 -82 140 -32 55 -62
107 -66 115 -3 8 -33 60 -65 114 -55 93 -82 125 -82 95 0 -7 -20 -44 -44 -83
-37 -61 -229 -393 -261 -451 -5 -11 -17 -31 -26 -45 -9 -14 -81 -137 -159
-275 -79 -137 -150 -259 -157 -270 -13 -20 -14 -20 -19 3 -4 12 -10 22 -15 22
-5 0 -9 4 -9 9 0 5 -19 42 -43 83 -24 40 -55 93 -69 118 -14 25 -98 170 -187
324 -88 153 -161 282 -161 287 0 5 -4 9 -8 9 -4 0 -13 12 -20 28 -6 15 -21 43
-33 62 -24 40 -339 582 -377 650 -14 25 -70 121 -124 214 -54 93 -98 170 -98
172 0 2 -17 32 -38 66 -21 35 -50 83 -64 108 -33 59 -264 459 -332 575 -29 50
-64 110 -78 135 -14 25 -65 113 -113 195 -48 83 -97 168 -110 190 -12 22 -105
182 -205 355 -100 173 -268 464 -372 645 -105 182 -193 333 -197 337 -3 4
-154 -76 -336 -178z"/>
<path d="M4682 6868 c-12 -24 -26 -50 -32 -58 -20 -32 -110 -182 -110 -184 0
-1 -108 -186 -240 -410 l-240 -408 102 -177 c145 -252 248 -431 269 -466 10
-16 30 -52 45 -80 14 -27 35 -62 45 -77 11 -14 19 -29 19 -32 0 -3 22 -43 49
-88 48 -81 283 -488 333 -578 51 -90 470 -815 473 -818 2 -2 9 9 17 25 13 26
180 315 227 393 11 19 32 58 47 85 15 28 34 61 44 75 9 14 29 46 42 71 14 25
118 205 231 400 112 195 214 370 225 389 131 228 278 483 386 669 36 62 66
115 66 117 0 2 11 20 25 40 l25 37 -29 18 c-17 10 -61 35 -98 56 -37 20 -86
47 -108 59 -22 13 -56 31 -75 42 -129 72 -322 178 -357 198 -24 13 -64 36 -90
51 -342 191 -650 363 -700 389 -34 19 -170 95 -303 169 -132 74 -247 135 -253
135 -7 0 -23 -19 -35 -42z"/>
<path d="M1244 3238 c-82 -143 -160 -279 -173 -302 -13 -22 -32 -54 -41 -71
-10 -16 -119 -208 -244 -425 -124 -217 -230 -402 -235 -410 -9 -14 -92 -158
-139 -240 -11 -19 -88 -154 -172 -300 -84 -146 -154 -270 -157 -276 -2 -7 42
-38 99 -71 57 -33 177 -104 268 -158 91 -54 174 -103 185 -109 11 -6 73 -42
138 -81 64 -38 125 -74 135 -80 20 -11 228 -135 254 -150 9 -5 29 -17 45 -26
61 -34 770 -453 793 -469 54 -36 56 -35 112 63 29 51 58 100 63 109 10 17 72
124 123 213 115 200 360 620 389 668 l35 58 -99 171 c-54 95 -110 192 -124
217 -14 25 -142 249 -284 496 -142 248 -267 466 -278 485 -62 111 -118 208
-177 310 -37 63 -81 140 -98 170 -16 30 -78 138 -136 239 -58 101 -106 186
-106 190 0 3 -6 14 -13 23 -11 14 -33 -18 -163 -244z"/>
</g>
</svg>
