<svg version="1.1" xmlns="http://www.w3.org/2000/svg" viewBox="0 0 1297.2352865700932 798.305144291327" width="1297.2352865700932" height="798.305144291327">
  <!-- svg-source:excalidraw -->
  
  <defs>
    <style class="style-fonts">
      @font-face {
        font-family: "Virgil";
        src: url("https://excalidraw.com/Virgil.woff2");
      }
      @font-face {
        font-family: "Cascadia";
        src: url("https://excalidraw.com/Cascadia.woff2");
      }
    </style>
  </defs>
  <rect x="0" y="0" width="1297.2352865700932" height="798.305144291327" fill="#ffffff"></rect><g stroke-opacity="0.5" fill-opacity="0.5" stroke-linecap="round" transform="translate(10 10) rotate(0 476.02222625962776 389.1525721456635)"><path d="M0 0 L952.04 0 L952.04 778.31 L0 778.31" stroke="none" stroke-width="0" fill="#ced4da"></path><path d="M0 0 C369.63 0, 739.27 0, 952.04 0 M0 0 C255.73 0, 511.46 0, 952.04 0 M952.04 0 C952.04 252.35, 952.04 504.7, 952.04 778.31 M952.04 0 C952.04 254.33, 952.04 508.65, 952.04 778.31 M952.04 778.31 C646.33 778.31, 340.62 778.31, 0 778.31 M952.04 778.31 C621.59 778.31, 291.14 778.31, 0 778.31 M0 778.31 C0 497.02, 0 215.74, 0 0 M0 778.31 C0 561.91, 0 345.51, 0 0" stroke="#000000" stroke-width="4" fill="none"></path></g><g stroke-opacity="0.1" fill-opacity="0.1" stroke-linecap="round" transform="translate(328.75262316436573 77.89197098720842) rotate(0 223.71032949588175 128.23562820475217)"><path d="M0 0 L447.42 0 L447.42 256.47 L0 256.47" stroke="none" stroke-width="0" fill="#15aabf"></path><path d="M0 0 C109.17 0, 218.33 0, 447.42 0 M0 0 C93.75 0, 187.51 0, 447.42 0 M447.42 0 C447.42 55.52, 447.42 111.04, 447.42 256.47 M447.42 0 C447.42 93, 447.42 186.01, 447.42 256.47 M447.42 256.47 C281.06 256.47, 114.7 256.47, 0 256.47 M447.42 256.47 C350.21 256.47, 253.01 256.47, 0 256.47 M0 256.47 C0 202.96, 0 149.44, 0 0 M0 256.47 C0 163.08, 0 69.68, 0 0" stroke="#000000" stroke-width="4" fill="none"></path></g><g stroke-opacity="0.6" fill-opacity="0.6" transform="translate(486.4298813637869 98.05774097446829) rotate(0 84.68557739257812 11.230304828565522)"><text x="84.68557739257812" y="0" font-family="Helvetica, Segoe UI Emoji" font-size="19.530964919244543px" fill="#000000" text-anchor="middle" style="white-space: pre;" direction="ltr" dominant-baseline="text-before-edge">Dependency Graph</text></g><g stroke-opacity="0.4" fill-opacity="0.4" stroke-linecap="round" transform="translate(1045.2352865700932 361.4996003411934) rotate(0 121 88)"><path d="M-3.48 0.44 L244.41 -3.1 L245.95 172.64 L2.83 176.47" stroke="none" stroke-width="0" fill="#4c6ef5"></path><path d="M1.38 -2.01 C62.33 1.13, 121.91 5.41, 242.68 2.09 M245.73 -3 C243.83 50.94, 243.26 110.91, 243.7 177.7 M239.34 176.71 C171.98 174.82, 95.89 176.35, 1.67 172.92 M-3.68 175.88 C-0.64 121.89, -2.14 67.4, 0.67 2.76" stroke="#aaa" stroke-width="4.5" fill="none" stroke-dasharray="1.5 10"></path></g><g transform="translate(1093.8563803200932 417.29960034119335) rotate(0 72.37890625 32.200000000000045)"><text x="72.37890625" y="0" font-family="Helvetica, Segoe UI Emoji" font-size="28px" fill="#000000" text-anchor="middle" style="white-space: pre;" direction="ltr" dominant-baseline="text-before-edge">Xania </text><text x="72.37890625" y="32.199999999999996" font-family="Helvetica, Segoe UI Emoji" font-size="28px" fill="#000000" text-anchor="middle" style="white-space: pre;" direction="ltr" dominant-baseline="text-before-edge">Component</text></g><g stroke-linecap="round" transform="translate(343.95055994173265 630.3761702857419) rotate(0 58.5 54)"><path d="M0 0 C0 0, 0 0, 0 0 M0 0 C0 0, 0 0, 0 0 M-0.89 7.25 C0.38 6.46, 2.54 4.01, 6.25 -0.94 M0.24 6.71 C0.89 5.32, 3.58 2.53, 5.47 1.14 M-0.49 12.16 C3.02 11.22, 7.23 2.41, 13.8 0.32 M-0.88 12.45 C2.54 9.21, 6.96 3.68, 9.28 -0.15 M-3.59 19.08 C8.12 10.29, 9.36 5.28, 14.45 2.64 M1.65 16.54 C3.48 14.12, 10.24 6.81, 13.65 -1.33 M-1.81 26.58 C6.56 14.72, 10.89 7, 23.22 -0.09 M0.32 24.91 C5.27 18.08, 9.71 11.31, 20.53 1.73 M-2.37 30.71 C12.54 20.75, 20.72 10.51, 28.26 3.21 M-0.09 31.59 C12.08 17.13, 19.03 8.12, 27.99 1.86 M-1.89 35.15 C4.9 29.41, 19.34 15.23, 31.73 -1.31 M-0.7 36.2 C11.42 22.28, 21.16 9.58, 33.03 -1.26 M1.2 43.75 C10.4 33.12, 23.64 17.74, 35.14 -0.05 M0.28 41.22 C6.43 35.02, 16.22 25.79, 37.11 -0.18 M2.48 45.05 C11.38 38.91, 21.42 27.38, 42.35 0.22 M0.8 49.12 C10.02 37, 24.03 21.16, 42.51 1.13 M1.86 53.2 C17.62 32.76, 34.46 19.93, 44.03 0.66 M-1.41 55.98 C18.37 33.09, 33.26 14.12, 46.25 0.21 M-3.92 64.31 C20.49 41.76, 41.05 20.1, 52.71 2.59 M1.14 60.34 C14.83 43.52, 31.13 26.02, 52.38 0.92 M-2.92 65.39 C21.49 41.57, 41.29 23.96, 55.24 3.75 M1.33 68.87 C15.4 46.88, 31.2 29.76, 57.96 -1.63 M3.73 74.84 C29.15 40.37, 48.56 17.05, 63.81 -1.48 M-1.37 73.45 C21.96 47.43, 47.37 20.56, 65.34 -0.22 M-2.33 79.03 C15.73 63.09, 31.78 49.67, 68.45 -1.76 M0.25 80.33 C25.75 53.77, 46.92 26.5, 68.1 1.35 M1.62 81.19 C17.79 62.2, 35.56 36.79, 72.02 -0.63 M0.87 83.72 C15.42 69.13, 32.5 47.9, 75.4 1.1 M-0.14 89.73 C21.39 65.47, 50.72 30.6, 82.72 3.8 M0.48 90.73 C23.4 59.81, 51.37 30.35, 77.84 -0.16 M-3.37 95.25 C19.27 78.79, 37.71 54.25, 85.09 3.09 M0.14 98.89 C30.05 65.14, 57.54 34.66, 83.88 -2.06 M3.88 102.97 C28.79 70.71, 57.68 40.23, 88.49 -1.29 M-0.91 105.38 C33.23 65.76, 70.49 23.21, 89.67 0.27 M-2.32 108.55 C37.8 67.23, 70.93 26.68, 98.14 2.29 M0.63 107.34 C32.58 69.57, 69.79 29.36, 95.45 1.04 M3.26 112.03 C32.17 74.39, 58.15 47.12, 99.58 -0.12 M6.38 108.49 C35.71 73.04, 66.99 38.82, 99.39 0.71 M11.62 111.68 C42.43 75.25, 65.98 46.88, 109.68 0.19 M10.42 109.6 C29.89 85.35, 51.65 61.55, 106.04 -1.16 M19.69 105.15 C53.71 62.34, 93.13 24.73, 113.16 -1.16 M16.73 110.26 C53.38 65.54, 86.01 26.02, 112.11 -1.04 M18.27 107.01 C54.12 69.07, 86.02 26.1, 112.91 3.38 M20.53 111.03 C53.47 73.85, 83.7 40.18, 118.26 2.21 M26.96 108.97 C57.5 73.71, 83.25 37.75, 123.83 4.01 M28.58 110.34 C58.64 70.08, 93.37 32.88, 120.27 2.74 M30.7 108.18 C62.04 74.97, 86.11 45.68, 123.19 11.13 M33.13 109.34 C58.26 76.83, 85.65 47.28, 120.8 9.78 M38.8 107.44 C63.54 76.37, 92.86 46.73, 120.96 11.73 M36.25 108.79 C60.76 83.71, 82.06 55.74, 121.07 12.75 M45.36 111.48 C69.75 81.39, 93.81 53.25, 120.41 22.76 M43.71 109.94 C72.61 73.18, 105.29 38.74, 118.83 19.25 M48.34 111.18 C61.18 88.05, 77.05 75.12, 115.73 24.34 M49.38 107.37 C67.65 80.78, 92.42 57.94, 119.4 28.79 M50.04 111.83 C77.45 79.76, 107.34 50.36, 119.85 32.23 M53.07 109.92 C80.64 80.82, 104.93 52.14, 120.82 34.04 M60.09 109.39 C83.35 83.4, 109.73 52.93, 120.16 42.37 M60.94 109.51 C74.31 91.82, 90.4 72.56, 118.96 37.87 M63.94 110.74 C85.26 87.19, 103.38 64.28, 120.89 47.86 M63.32 110.06 C77.34 92.73, 93.26 73.9, 119.3 43.02 M73.9 109.92 C90.91 86.78, 107.3 63.19, 119.63 51.23 M71.17 108.33 C87.74 87.19, 107.19 62.63, 118.76 52.97 M73.61 108.39 C90.54 98.85, 97.8 80.26, 117.62 57.4 M73.88 110.83 C84.57 97.96, 92.66 86.39, 121.44 57.52 M77.04 107.25 C91.83 97.57, 100.69 81.35, 123.58 66.21 M79.67 106.65 C95.49 93.62, 107.85 76.33, 119.77 61.99 M89 111.54 C97.64 99.28, 107.51 86.05, 117.47 72.92 M85.48 108.38 C99.28 92.27, 111.23 81.18, 119.68 68.27 M92.12 106.46 C97.9 98.29, 101.85 90.47, 116.83 77.21 M89.33 108.96 C101.84 98.05, 113.21 85.4, 120.3 76.52 M95.4 109.62 C101.65 97.42, 114.62 89.31, 121.29 79.41 M96.18 110.56 C103.08 100.22, 110.23 93.34, 119.84 81.97 M105.15 107.29 C106.84 102.85, 112.46 101.22, 122.9 89.52 M102.34 109.45 C104.23 104.78, 110.24 101.17, 119.31 88.6 M109.51 106.66 C108.18 105.3, 118.18 94.03, 117.94 95.7 M105.33 108.9 C110.16 106.71, 115.32 102, 119.68 94.23 M113.04 110.41 C114.87 107.08, 116.42 101.9, 119.13 98.27 M112.35 108.17 C115.51 105.73, 118.74 102.47, 119.33 99.86" stroke="#82c91e" stroke-width="0.5" fill="none"></path><path d="M-0.44 -1.57 C37.45 -1.23, 74.82 -2.44, 114.32 2.14 M-1.13 1.73 C29.58 -0.72, 58.25 -1.76, 118.81 -1.31 M115.5 -3.88 C112.48 26.84, 117.2 45.02, 117.99 107.18 M116.46 0.18 C117.52 30.28, 118.36 61.32, 115.98 108.12 M120.66 106.21 C82.6 108.51, 44.82 108.43, -0.55 106.43 M115.53 107.96 C75.52 106.53, 34.76 103.95, -0.62 108.38 M-0.71 107 C-0.87 88.28, 1.65 60.79, -3.18 -0.33 M1.1 109.97 C0.28 73.51, 3.6 35.09, 0.61 0.06" stroke="#aaa" stroke-width="1" fill="none"></path></g><g transform="translate(379.7305739798186 671.8761702857419) rotate(0 22.719985961914062 12.5)"><text x="22.719985961914062" y="0" font-family="Virgil, Segoe UI Emoji" font-size="20px" fill="#000000" text-anchor="middle" style="white-space: pre;" direction="ltr" dominant-baseline="text-before-edge">DOM</text></g><g stroke-opacity="0.7" fill-opacity="0.7" stroke-linecap="round" transform="translate(146.02539287673142 466.373169548046) rotate(0 43 35.5)"><path d="M10.08 11.41 C10.08 11.41, 10.08 11.41, 10.08 11.41 M10.08 11.41 C10.08 11.41, 10.08 11.41, 10.08 11.41 M1.67 30.03 C3.56 19.82, 10.81 16.34, 18.32 6.24 M-0.01 28.81 C5.96 22.2, 15.79 12.67, 20.06 9.01 M-1.98 32.62 C8.95 27.65, 14.56 16.24, 29.73 0.84 M0.96 35.18 C12.37 21.38, 22.17 10.14, 25.64 2.8 M0.34 41.91 C12.52 23.67, 19.42 16.02, 37.68 4.27 M3.49 37.62 C13.24 24.46, 25.85 12.96, 33.22 2.57 M0.73 45.56 C12.25 32.86, 25.27 22.58, 36.1 -0.07 M2.84 45.29 C14.92 29.94, 26.67 17.51, 39.75 2.3 M2.48 50.41 C16.83 32.42, 32.89 14.85, 46.45 1.35 M2.76 48.69 C17.96 31.53, 34.82 16.8, 43.36 1.94 M5.79 52.16 C23.92 36.92, 35.92 20.5, 51.66 3.49 M6.5 54.03 C15.42 37.8, 29.56 26.09, 50.61 3.28 M11.01 53.73 C19.56 41.36, 30.2 26.71, 55.07 6.97 M9.45 54.16 C20.41 39.44, 30.76 28.67, 52.84 2.87 M11.54 58.68 C33.15 39.44, 47.92 14.4, 58.24 4.84 M13.44 58.66 C26.86 39.91, 43.83 20.46, 57.41 3.33 M17.02 60.98 C31.65 42.96, 48.45 15.89, 60.08 3.3 M15.28 60.2 C26.51 50.8, 34.27 38.78, 64.09 6.82 M21.72 64.29 C31.44 44.52, 48.9 21.8, 65.14 8.97 M16.53 62.43 C30.44 47.64, 47.13 29.55, 66.81 6.79 M18.27 64.14 C33.79 48.24, 47.01 35.27, 72.11 12.63 M22.59 66.85 C35.1 49.52, 47.36 34.94, 71.52 8.46 M26.1 63.77 C38.13 53.32, 42.66 44.98, 76.26 15.22 M24.56 65.22 C40.77 49.95, 52.17 34.18, 71.97 11.39 M32.54 65.05 C35.95 58.16, 51.91 44.02, 72.45 12.09 M29.68 67.12 C48.11 46.47, 67.45 24.47, 78.15 14.37 M33.84 71.04 C44.26 55.19, 50.19 50.22, 79.61 13.29 M31.72 71.14 C48.6 50.48, 63.93 35.12, 78.11 16.3 M39 70.44 C57.03 56.73, 69.22 31.82, 78.46 21.24 M36.18 69.95 C52.92 55.24, 69.85 33.85, 81.04 22.58 M42.12 69.37 C54.51 52.05, 72.39 36.23, 80.59 21.8 M42.08 70.72 C53.58 59.89, 62.76 47.46, 83.76 24.68 M48.16 69.13 C57.43 60.19, 74.82 42.63, 84.21 24.73 M49 69.45 C58.59 56.14, 70.64 43.17, 83.84 29.32 M56.1 71.91 C64.82 61.27, 71.47 41.75, 91.25 34.21 M53.68 69.39 C65.51 58.37, 75.34 43.68, 86.06 29.57 M62.61 72.35 C71.04 58.83, 81.26 47.77, 93.1 35.58 M59.04 69.17 C70.71 56.16, 83.41 41.76, 89.53 36.23 M63.83 68.23 C73.02 61.23, 75.56 54.36, 89.79 44.64 M65.36 70.12 C68.46 65.47, 73.79 61.09, 88.23 43.75" stroke="#15aabf" stroke-width="0.5" fill="none"></path><path d="M34.48 0.38 C41.82 -1.22, 51.47 0.88, 58.55 3.31 C65.62 5.75, 72.1 10.07, 76.92 14.97 C81.75 19.86, 86.76 26.51, 87.51 32.69 C88.25 38.86, 85.57 46.13, 81.4 52 C77.22 57.88, 69.11 64.55, 62.44 67.92 C55.77 71.29, 48.99 73.15, 41.37 72.23 C33.74 71.3, 23.09 66.2, 16.7 62.37 C10.31 58.54, 5.93 54.98, 3.04 49.24 C0.14 43.49, -1.83 34.21, -0.65 27.9 C0.52 21.59, 3.38 16.18, 10.1 11.38 C16.82 6.58, 33.36 0.66, 39.66 -0.89 C45.95 -2.44, 47.74 1.47, 47.88 2.09 M33.05 -2.41 C40.25 -3.71, 54 0.01, 61.3 3.07 C68.59 6.13, 72.42 11.14, 76.81 15.96 C81.19 20.77, 87.11 25.21, 87.63 31.96 C88.15 38.71, 84.56 50.39, 79.91 56.46 C75.26 62.52, 66.47 66.43, 59.74 68.33 C53.01 70.23, 46.6 68.58, 39.56 67.86 C32.51 67.15, 23.41 67.22, 17.46 64.06 C11.5 60.9, 6.71 55.49, 3.84 48.9 C0.96 42.31, -1.63 30.76, 0.2 24.53 C2.03 18.31, 8.57 15.15, 14.84 11.54 C21.11 7.92, 34.4 4.69, 37.82 2.84 C41.23 1, 35.89 0.48, 35.35 0.44" stroke="#000000" stroke-width="1" fill="none"></path></g><g stroke-opacity="0.7" fill-opacity="0.7" transform="translate(167.92780757233095 491.7708788159239) rotate(0 21.191993713378906 10)"><text x="21.191993713378906" y="0" font-family="Virgil, Segoe UI Emoji" font-size="16px" fill="#000000" text-anchor="middle" style="white-space: pre;" direction="ltr" dominant-baseline="text-before-edge">event</text></g><g stroke-linecap="round" transform="translate(69.14748776939678 214.9753721043944) rotate(0 95.5 70)"><path d="M96 0 L191 71 L96 140 L0 71" stroke="none" stroke-width="0" fill="#ced4da" fill-rule="evenodd"></path><path d="M96 0 C122.6 19.88, 149.2 39.76, 191 71 M96 0 C130.97 26.14, 165.94 52.27, 191 71 M191 71 C171.91 84.87, 152.82 98.73, 96 140 M191 71 C153.75 98.06, 116.49 125.12, 96 140 M96 140 C67.79 119.72, 39.58 99.45, 0 71 M96 140 C70.72 121.83, 45.43 103.65, 0 71 M0 71 C34.23 45.68, 68.47 20.36, 96 0 M0 71 C22.63 54.26, 45.27 37.52, 96 0" stroke="#000000" stroke-width="1" fill="none"></path></g><g transform="translate(122.32951749351787 264.9753721043944) rotate(0 42.567970275878906 20)"><text x="42.567970275878906" y="0" font-family="Virgil, Segoe UI Emoji" font-size="16px" fill="#000000" text-anchor="middle" style="white-space: pre;" direction="ltr" dominant-baseline="text-before-edge">update </text><text x="42.567970275878906" y="20" font-family="Virgil, Segoe UI Emoji" font-size="16px" fill="#000000" text-anchor="middle" style="white-space: pre;" direction="ltr" dominant-baseline="text-before-edge">command(s)</text></g><g stroke-linecap="round"><g transform="translate(344.36486610574644 629.1790246062853) rotate(0 -60.56706393264386 -52.173427459166646)"><path d="M0 0 C-28.41 -24.47, -56.81 -48.94, -121.13 -104.35 M0 0 C-25.03 -21.57, -50.07 -43.13, -121.13 -104.35" stroke="#000000" stroke-width="1" fill="none"></path></g><g transform="translate(344.36486610574644 629.1790246062853) rotate(0 -60.56706393264386 -52.173427459166646)"><path d="M-93.08 -93.72 C-99.66 -96.21, -106.24 -98.71, -121.13 -104.35 M-93.08 -93.72 C-98.88 -95.92, -104.67 -98.11, -121.13 -104.35" stroke="#000000" stroke-width="1" fill="none"></path></g><g transform="translate(344.36486610574644 629.1790246062853) rotate(0 -60.56706393264386 -52.173427459166646)"><path d="M-106.47 -78.17 C-109.91 -84.31, -113.35 -90.45, -121.13 -104.35 M-106.47 -78.17 C-109.5 -83.58, -112.53 -88.99, -121.13 -104.35" stroke="#000000" stroke-width="1" fill="none"></path></g></g><mask></mask><g stroke-linecap="round"><g transform="translate(1043.6056569404636 485.5796159490428) rotate(0 -289.4298540485496 86.2701889136772)"><path d="M0 0 C-204.65 61, -409.3 122, -578.86 172.54 M0 0 C-187.64 55.93, -375.28 111.86, -578.86 172.54" stroke="#000000" stroke-width="1" fill="none"></path></g><g transform="translate(1043.6056569404636 485.5796159490428) rotate(0 -289.4298540485496 86.2701889136772)"><path d="M-554.77 154.65 C-563.29 160.98, -571.8 167.3, -578.86 172.54 M-554.77 154.65 C-562.58 160.45, -570.39 166.25, -578.86 172.54" stroke="#000000" stroke-width="1" fill="none"></path></g><g transform="translate(1043.6056569404636 485.5796159490428) rotate(0 -289.4298540485496 86.2701889136772)"><path d="M-548.91 174.32 C-559.5 173.69, -570.09 173.06, -578.86 172.54 M-548.91 174.32 C-558.62 173.74, -568.33 173.17, -578.86 172.54" stroke="#000000" stroke-width="1" fill="none"></path></g></g><mask></mask><g mask="url(#mask--I-yNQsowIArMSfbjInHp)" stroke-linecap="round"><g transform="translate(198.53459241691553 466.0134675457573) rotate(0 -0.5777140813743813 -66.89501744489405)"><path d="M0 0 C-0.41 -47.93, -0.83 -95.86, -1.16 -133.79 M0 0 C-0.38 -43.53, -0.75 -87.06, -1.16 -133.79" stroke="#000000" stroke-width="1" fill="none"></path></g><g transform="translate(198.53459241691553 466.0134675457573) rotate(0 -0.5777140813743813 -66.89501744489405)"><path d="M9.35 -105.69 C5.59 -115.76, 1.82 -125.82, -1.16 -133.79 M9.35 -105.69 C5.93 -114.83, 2.51 -123.98, -1.16 -133.79" stroke="#000000" stroke-width="1" fill="none"></path></g><g transform="translate(198.53459241691553 466.0134675457573) rotate(0 -0.5777140813743813 -66.89501744489405)"><path d="M-11.17 -105.51 C-7.58 -115.64, -4 -125.77, -1.16 -133.79 M-11.17 -105.51 C-7.91 -114.71, -4.65 -123.91, -1.16 -133.79" stroke="#000000" stroke-width="1" fill="none"></path></g></g><mask id="mask--I-yNQsowIArMSfbjInHp"><rect x="0" y="0" fill="#fff" width="299.6900205796643" height="699.8035024355454"></rect><rect x="162.37484708554115" y="389.91845010086354" fill="#000" width="71.1640625" height="18.4" opacity="1"></rect></mask><g transform="translate(162.37484708554115 389.91845010086354) rotate(0 35.58203125 9.199999999999704)"><text x="35.58203125" y="0" font-family="Helvetica, Segoe UI Emoji" font-size="16px" fill="#000000" text-anchor="middle" style="white-space: pre;" direction="ltr" dominant-baseline="text-before-edge">generates</text></g><g stroke-linecap="round" transform="translate(565.1127556862825 210.3044562175437) rotate(0 46.5 35.5)"><path d="M10.07 12.73 C10.07 12.73, 10.07 12.73, 10.07 12.73 M10.07 12.73 C10.07 12.73, 10.07 12.73, 10.07 12.73 M-1.18 32.55 C3.34 28.73, 12.81 19.27, 16.1 5.42 M-2.01 29.74 C4.06 23.31, 13.3 17.16, 17.73 7.99 M3.14 35.48 C8.18 20.17, 19.79 10.33, 27.67 1.77 M1.71 35.44 C6.3 29.45, 13.64 21.28, 25.6 4.94 M3.16 40.11 C10.6 24.45, 27.14 16.84, 34.88 1.78 M3.61 40.95 C7.37 31.52, 14.27 24.56, 32.22 1.42 M0.75 46.64 C17.92 29.67, 32.27 10.6, 35.28 6.82 M1.93 44.22 C15.53 29.5, 30.36 12.77, 38.45 1.63 M5.68 50.98 C16.33 40.47, 22.08 31.75, 45.84 5.91 M3.85 47.42 C17.18 33.16, 29.49 20.02, 43.26 2.34 M9.24 51.25 C22.19 36.74, 37.15 15.9, 46.66 5.09 M7.76 52.78 C21.75 36.13, 35.78 21.57, 52.11 3.53 M7.14 52.78 C19.18 38.16, 36.6 29.74, 55.19 4.58 M10.79 57.02 C28.75 35.51, 45.7 16.84, 55.67 3.03 M13.09 58.62 C23.45 48.55, 34.37 36.41, 59.76 5.33 M15.01 59.18 C26.34 43.37, 40.87 27.6, 60.14 0.35 M17.71 58.52 C29.32 47.33, 41.84 32.46, 63.91 1 M14.97 62.99 C28.66 46.32, 43.99 29.61, 64.07 2.11 M20.77 64.44 C32.69 53.57, 38.66 37.28, 66.53 8.93 M18.55 65.78 C34.88 44.55, 52.07 27.29, 67.21 6.37 M24.8 65.57 C31.5 51.11, 47.66 35.69, 69.56 11.47 M21.23 66.83 C37.79 46.66, 56.4 26.76, 70.75 9.27 M24.61 65.77 C45.02 45.37, 66.68 21.76, 72.8 12.38 M24.19 66.24 C35.37 53.98, 47.58 39.16, 76.86 10.9 M26.37 70.16 C45.72 55.09, 56.08 39.04, 76.26 15.17 M30.03 68.85 C50.02 46.24, 68.91 23.58, 79.6 10.95 M32.98 70.04 C48.47 56.22, 54.25 44.83, 80.37 18.54 M36.8 70.55 C53.74 48.73, 70.52 28.57, 81.73 13.58 M43.8 72.19 C58.49 50.41, 69.82 31.34, 84.87 21.41 M38.32 68.96 C50.96 58.58, 60.6 45.91, 86.31 17.74 M46.86 70.33 C56.43 59.12, 63.32 50.06, 87.07 20.66 M44.99 72.27 C61.11 53.92, 78.28 33.37, 87.5 20.37 M51.07 72.65 C63.71 52.33, 80.31 38.45, 86.14 27.14 M48.68 72.12 C57.83 60.3, 67.28 45.5, 87.54 25.73 M57.18 71.3 C64.85 56.52, 78.52 43.14, 92.62 27.63 M54.31 70.5 C65.4 61.26, 74.61 50.14, 90.83 28.79 M64.7 71.4 C66.84 62.51, 76.16 54.14, 90.75 35.14 M59.34 70.09 C72.8 54.88, 88.17 42, 94.94 30.84 M63.49 71.28 C72.94 60.61, 79.54 56.38, 96.01 34.91 M66.04 67.92 C75.41 56.67, 87.27 43.96, 96.71 34.89 M71.27 68.96 C78.52 63.03, 85.52 56.08, 96.8 47.9 M71.61 71.21 C80.55 61.67, 88.77 52.18, 94.64 42.58" stroke="#fd7e14" stroke-width="0.5" fill="none"></path><path d="M10.19 12.59 C14.9 7.92, 24.32 4.46, 32.88 2.58 C41.44 0.7, 53.41 -0.6, 61.58 1.31 C69.74 3.22, 76.55 8.82, 81.89 14.04 C87.22 19.27, 92.54 26.44, 93.58 32.68 C94.63 38.92, 92.21 45.66, 88.16 51.47 C84.11 57.27, 76.02 64.53, 69.28 67.51 C62.55 70.5, 56.12 69.76, 47.75 69.37 C39.39 68.97, 26.32 68.43, 19.11 65.17 C11.89 61.9, 7.75 55.51, 4.45 49.8 C1.16 44.09, -4.18 38.91, -0.68 30.92 C2.82 22.93, 17.97 6.56, 25.47 1.85 C32.98 -2.86, 43.71 1.85, 44.34 2.66 M39.32 1.66 C46.93 0.44, 58.59 -0.96, 66.34 1.46 C74.09 3.87, 81.69 10.67, 85.8 16.14 C89.91 21.61, 90.74 28.18, 91 34.29 C91.26 40.39, 91.34 47.53, 87.35 52.78 C83.35 58.03, 75.56 62.62, 67.02 65.78 C58.47 68.95, 44.51 72.42, 36.06 71.75 C27.61 71.08, 22.54 66.59, 16.33 61.77 C10.11 56.95, 0.66 49.12, -1.23 42.85 C-3.12 36.58, 1.81 29.91, 4.99 24.13 C8.17 18.36, 12.11 12.2, 17.84 8.2 C23.57 4.21, 35.58 1.13, 39.37 0.16 C43.16 -0.8, 40.52 1.33, 40.56 2.41" stroke="#000000" stroke-width="1" fill="none"></path></g><g transform="translate(584.4603100754636 225.70216548542112) rotate(0 27.271980285644528 20)"><text x="27.27198028564453" y="0" font-family="Virgil, Segoe UI Emoji" font-size="16px" fill="#000000" text-anchor="middle" style="white-space: pre;" direction="ltr" dominant-baseline="text-before-edge">update</text><text x="27.27198028564453" y="20" font-family="Virgil, Segoe UI Emoji" font-size="16px" fill="#000000" text-anchor="middle" style="white-space: pre;" direction="ltr" dominant-baseline="text-before-edge">model</text></g><g stroke-linecap="round" transform="translate(432.84744192744506 157.54128548269637) rotate(0 54.5 35.5)"><path d="M1.01 26.05 C1.01 26.05, 1.01 26.05, 1.01 26.05 M1.01 26.05 C1.01 26.05, 1.01 26.05, 1.01 26.05 M-2.42 28.96 C6.48 30.45, 13.66 22.8, 16.68 8.49 M1.25 33.41 C6.54 25.28, 10.33 20.28, 20.56 10.49 M1.7 36.84 C11.24 29.08, 10.65 21.72, 26.05 12.99 M2.67 38.65 C11 28.89, 15.01 20.74, 24.52 12.09 M3.31 45.48 C9.27 28.06, 21.62 24.58, 33.62 6.6 M2.12 40.98 C13.38 29.94, 22.01 20.64, 32.63 9.09 M6.02 48.71 C15.42 33.31, 28.13 18.06, 41.62 2.42 M4.43 43.87 C19.47 29.41, 32.67 18.53, 40.03 7.44 M7.38 49.06 C23.25 38.11, 33.82 24.39, 48.53 -1.08 M6.51 50.79 C24.01 31.19, 40.72 10.83, 48.66 3.42 M7.99 52.2 C24.1 31.23, 46.38 10.38, 57.79 1.32 M11.81 52.33 C24.56 35.92, 37.77 18.55, 53.28 1.6 M16.58 57.99 C31.21 38.12, 47.98 17.39, 54.55 5.89 M12.77 53.77 C29.41 35.65, 45.12 18.5, 59.58 3.83 M13.09 61.69 C34.08 39.26, 51.32 20.37, 62.28 5.38 M15.31 57.04 C24.26 42.97, 38.36 32.86, 62.22 3.2 M14.42 63.71 C32.84 45.79, 39.46 31.88, 68.56 3.18 M17.9 63.02 C37.72 40.6, 57.01 17.53, 67.95 2.94 M23.47 60.63 C34.58 47.79, 47.94 30.77, 76.03 5.6 M22.03 63.19 C32.15 48.95, 45.35 36.68, 71.97 5.23 M29.68 65.46 C36.51 44.54, 50.54 32.25, 79.59 1.37 M26.09 64.53 C44.85 44.98, 62.06 25.44, 76.46 3.37 M28.65 67.11 C47.19 42.91, 64.59 20.59, 81.43 6.39 M30.39 65.64 C49.25 40.63, 67.96 19.84, 83.04 7.16 M33.97 62.92 C54.26 43.65, 71.96 26.92, 84.1 10.2 M34.33 65.81 C48.55 45.99, 64.62 27.59, 83.15 9.97 M42.27 65.63 C47.48 55.45, 61.45 39.69, 92.27 10.78 M38.85 68.72 C56.1 46.52, 76.99 26.2, 89.26 12.16 M41.59 66.63 C55.4 52.08, 70.39 37.49, 95.85 11.26 M44.21 70.25 C56.13 55.32, 66.62 41.25, 91.29 14.45 M45.25 70.76 C57.76 52.92, 66.35 40.74, 99.68 18.19 M49.12 69.92 C57.79 57.96, 68.18 43.94, 95.74 12.8 M53.46 65.99 C72.6 48.13, 88.29 32.01, 97.33 15.77 M53.89 69.2 C67.47 52.22, 85.48 33.83, 100.83 17.26 M62.56 66.97 C72.54 51.23, 89.71 33.05, 101.48 19.38 M58.87 67.67 C78.04 51.19, 92.59 30.02, 104.25 18.12 M65.96 69.53 C70.12 57.55, 83.53 45.18, 104.44 23.84 M62.92 70.17 C72.52 57.08, 85.6 41.33, 105.07 22.78 M69.3 71.37 C80.28 54.42, 93.65 41.27, 104.34 27.31 M67.82 68.11 C78.41 61.54, 84.14 51.45, 107.31 28.36 M76.15 66.91 C88.62 57.28, 102.76 38.88, 105.78 28.68 M73.47 70.9 C84.86 57.39, 92.76 48.91, 105.94 31.59 M79.2 67.94 C89.89 58.96, 95.54 53.45, 109.44 32.72 M78.32 71.31 C86.81 62.26, 92.95 55.46, 109.9 34.66 M91.09 67.4 C97.23 57.71, 102.16 47.99, 113.25 37.63 M87.66 65.77 C97.23 53.69, 106.07 46.43, 112.6 41.39" stroke="#fa5252" stroke-width="0.5" fill="none"></path><path d="M78.52 4.55 C87.38 6.45, 97.39 10.97, 102.42 16.51 C107.46 22.05, 109.11 31.29, 108.73 37.78 C108.35 44.26, 105.43 50.28, 100.13 55.42 C94.84 60.55, 85.83 66.19, 76.96 68.59 C68.09 70.98, 56.86 70.96, 46.93 69.79 C37 68.63, 24.73 65.85, 17.39 61.59 C10.05 57.33, 5.62 50.14, 2.88 44.23 C0.14 38.32, -2.1 31.91, 0.94 26.14 C3.98 20.37, 13.34 13.94, 21.12 9.6 C28.91 5.27, 34.12 -1.11, 47.65 0.12 C61.17 1.35, 92.16 11.39, 102.25 16.99 C112.35 22.59, 109.23 33.65, 108.23 33.72 M99.58 12.28 C105.05 16.71, 106.52 27.63, 106.77 33.98 C107.03 40.33, 105.8 45.09, 101.1 50.39 C96.39 55.7, 87.08 62.29, 78.53 65.81 C69.99 69.33, 59.7 71.96, 49.83 71.53 C39.97 71.1, 26.81 67.6, 19.34 63.21 C11.87 58.82, 8.47 51.11, 5.03 45.2 C1.58 39.29, -3.34 33.39, -1.33 27.74 C0.67 22.1, 10.02 15.85, 17.08 11.3 C24.13 6.75, 31.23 2.32, 41 0.46 C50.77 -1.41, 66.08 -1.89, 75.7 0.11 C85.32 2.11, 94.87 9.7, 98.73 12.47 C102.6 15.24, 99.35 15.8, 98.89 16.75" stroke="#000000" stroke-width="1" fill="none"></path></g><g transform="translate(456.03814206713366 172.93899475057378) rotate(0 31.27198028564453 20)"><text x="31.27198028564453" y="0" font-family="Virgil, Segoe UI Emoji" font-size="16px" fill="#000000" text-anchor="middle" style="white-space: pre;" direction="ltr" dominant-baseline="text-before-edge">update </text><text x="31.27198028564453" y="20" font-family="Virgil, Segoe UI Emoji" font-size="16px" fill="#000000" text-anchor="middle" style="white-space: pre;" direction="ltr" dominant-baseline="text-before-edge">dom</text></g><g stroke-linecap="round"><g transform="translate(244.97813190452422 297.3341369960208) rotate(0 164.3230278955936 -14.808986437135445)"><path d="M0 0 C80.37 -7.24, 160.74 -14.49, 328.65 -29.62 M0 0 C95.53 -8.61, 191.05 -17.22, 328.65 -29.62" stroke="#000000" stroke-width="1" fill="none"></path></g><g transform="translate(244.97813190452422 297.3341369960208) rotate(0 164.3230278955936 -14.808986437135445)"><path d="M301.49 -16.87 C308.13 -19.99, 314.77 -23.1, 328.65 -29.62 M301.49 -16.87 C309.38 -20.57, 317.28 -24.28, 328.65 -29.62" stroke="#000000" stroke-width="1" fill="none"></path></g><g transform="translate(244.97813190452422 297.3341369960208) rotate(0 164.3230278955936 -14.808986437135445)"><path d="M299.65 -37.31 C306.74 -35.43, 313.83 -33.55, 328.65 -29.62 M299.65 -37.31 C308.08 -35.07, 316.51 -32.84, 328.65 -29.62" stroke="#000000" stroke-width="1" fill="none"></path></g></g><mask></mask><g stroke-linecap="round"><g transform="translate(215.68261443743137 251.14345304840663) rotate(0 107.36354358868002 -26.72912424618039)"><path d="M0 0 C43.69 -10.88, 87.37 -21.75, 214.73 -53.46 M0 0 C47.38 -11.8, 94.76 -23.59, 214.73 -53.46" stroke="#000000" stroke-width="1" fill="none"></path></g><g transform="translate(215.68261443743137 251.14345304840663) rotate(0 107.36354358868002 -26.72912424618039)"><path d="M189.85 -36.69 C194.91 -40.1, 199.97 -43.51, 214.73 -53.46 M189.85 -36.69 C195.34 -40.39, 200.83 -44.09, 214.73 -53.46" stroke="#000000" stroke-width="1" fill="none"></path></g><g transform="translate(215.68261443743137 251.14345304840663) rotate(0 107.36354358868002 -26.72912424618039)"><path d="M184.89 -56.6 C190.96 -55.96, 197.03 -55.32, 214.73 -53.46 M184.89 -56.6 C191.48 -55.91, 198.06 -55.22, 214.73 -53.46" stroke="#000000" stroke-width="1" fill="none"></path></g></g><mask></mask><g stroke-linecap="round" transform="translate(465.86319930365886 406.5487327347132) rotate(0 59.043914733739086 55.593296340208894)"><path d="M0 0 C0 0, 0 0, 0 0 M0 0 C0 0, 0 0, 0 0 M-0.26 6.4 C1.82 4, 3.9 1.61, 4.99 0.36 M-0.26 6.4 C1.56 4.3, 3.39 2.2, 4.99 0.36 M0.13 12.04 C3.52 8.15, 6.9 4.25, 10.63 -0.03 M0.13 12.04 C3.88 7.73, 7.64 3.41, 10.63 -0.03 M-0.13 18.44 C5.12 12.41, 10.36 6.37, 15.62 0.33 M-0.13 18.44 C3.26 14.54, 6.64 10.65, 15.62 0.33 M0.27 24.08 C5.19 18.41, 10.12 12.74, 21.26 -0.07 M0.27 24.08 C4.88 18.78, 9.48 13.48, 21.26 -0.07 M0 30.48 C7.56 21.79, 15.11 13.1, 26.25 0.29 M0 30.48 C9.51 19.54, 19.02 8.61, 26.25 0.29 M-0.26 36.88 C11.42 23.45, 23.1 10.01, 31.89 -0.1 M-0.26 36.88 C8.47 26.84, 17.19 16.81, 31.89 -0.1 M0.14 42.52 C11.09 29.92, 22.04 17.32, 36.88 0.26 M0.14 42.52 C13.18 27.52, 26.22 12.51, 36.88 0.26 M-0.12 48.92 C10.65 36.53, 21.42 24.13, 42.52 -0.14 M-0.12 48.92 C14.61 31.97, 29.35 15.02, 42.52 -0.14 M0.27 54.56 C12.84 40.1, 25.41 25.64, 47.51 0.22 M0.27 54.56 C11.75 41.35, 23.24 28.14, 47.51 0.22 M0.01 60.96 C11.33 47.93, 22.66 34.91, 53.15 -0.17 M0.01 60.96 C13.79 45.11, 27.57 29.26, 53.15 -0.17 M-0.25 67.36 C20.76 43.18, 41.77 19.01, 58.14 0.19 M-0.25 67.36 C20.82 43.11, 41.9 18.87, 58.14 0.19 M0.14 73 C20.54 49.54, 40.93 26.08, 63.78 -0.21 M0.14 73 C13.76 57.33, 27.39 41.66, 63.78 -0.21 M-0.12 79.4 C14.56 62.51, 29.24 45.62, 68.77 0.15 M-0.12 79.4 C22.43 53.46, 44.97 27.53, 68.77 0.15 M0.28 85.04 C16.31 66.6, 32.34 48.15, 74.41 -0.24 M0.28 85.04 C29.62 51.29, 58.96 17.53, 74.41 -0.24 M0.01 91.44 C25.82 61.75, 51.62 32.07, 79.4 0.12 M0.01 91.44 C19.47 69.06, 38.93 46.67, 79.4 0.12 M-0.25 97.84 C25.98 67.67, 52.21 37.5, 85.04 -0.28 M-0.25 97.84 C31.71 61.07, 63.67 24.31, 85.04 -0.28 M0.15 103.48 C23.57 76.53, 47 49.58, 90.03 0.08 M0.15 103.48 C27.28 72.26, 54.42 41.04, 90.03 0.08 M-0.11 109.88 C35.03 69.45, 70.17 29.02, 95.67 -0.31 M-0.11 109.88 C29.15 76.21, 58.41 42.55, 95.67 -0.31 M2.25 113.26 C26.88 84.92, 51.52 56.58, 100.66 0.05 M2.25 113.26 C38.62 71.42, 74.98 29.59, 100.66 0.05 M7.89 112.86 C40.64 75.19, 73.39 37.52, 106.3 -0.34 M7.89 112.86 C40.09 75.83, 72.28 38.79, 106.3 -0.34 M12.88 113.22 C51.29 69.04, 89.69 24.86, 111.29 0.02 M12.88 113.22 C32.97 90.11, 53.07 66.99, 111.29 0.02 M18.52 112.83 C48.74 78.07, 78.96 43.31, 116.27 0.38 M18.52 112.83 C54.01 72, 89.5 31.18, 116.27 0.38 M23.51 113.19 C46.87 86.31, 70.24 59.43, 119.95 2.24 M23.51 113.19 C47.27 85.85, 71.03 58.52, 119.95 2.24 M28.5 113.55 C62.06 74.93, 95.63 36.31, 120.34 7.89 M28.5 113.55 C57.97 79.64, 87.45 45.73, 120.34 7.89 M34.14 113.15 C54.22 90.05, 74.3 66.95, 120.08 14.29 M34.14 113.15 C53.15 91.29, 72.15 69.43, 120.08 14.29 M39.13 113.51 C66.55 81.97, 93.97 50.42, 120.48 19.93 M39.13 113.51 C62.96 86.09, 86.8 58.67, 120.48 19.93 M44.77 113.12 C64.2 90.77, 83.63 68.42, 120.22 26.33 M44.77 113.12 C70.25 83.8, 95.73 54.49, 120.22 26.33 M49.76 113.48 C65.53 95.33, 81.31 77.18, 119.95 32.72 M49.76 113.48 C74.73 84.75, 99.7 56.03, 119.95 32.72 M55.4 113.08 C73.1 92.73, 90.79 72.37, 120.35 38.37 M55.4 113.08 C74.23 91.42, 93.06 69.76, 120.35 38.37 M60.39 113.44 C83.96 86.32, 107.54 59.2, 120.09 44.77 M60.39 113.44 C82.47 88.03, 104.56 62.62, 120.09 44.77 M66.03 113.05 C82.52 94.08, 99 75.12, 120.48 50.41 M66.03 113.05 C79.95 97.03, 93.88 81.01, 120.48 50.41 M71.02 113.41 C89.7 91.92, 108.38 70.43, 120.22 56.81 M71.02 113.41 C89.77 91.84, 108.52 70.27, 120.22 56.81 M76.66 113.01 C86.98 101.14, 97.3 89.27, 119.96 63.2 M76.66 113.01 C89.55 98.19, 102.43 83.36, 119.96 63.2 M81.65 113.37 C92.36 101.05, 103.07 88.73, 120.35 68.85 M81.65 113.37 C90.11 103.64, 98.57 93.91, 120.35 68.85 M87.29 112.98 C94.99 104.13, 102.68 95.27, 120.09 75.24 M87.29 112.98 C99.18 99.3, 111.07 85.63, 120.09 75.24 M92.28 113.34 C102.13 102, 111.99 90.66, 120.49 80.89 M92.28 113.34 C100.64 103.71, 109.01 94.09, 120.49 80.89 M97.92 112.95 C104.9 104.92, 111.88 96.89, 120.23 87.29 M97.92 112.95 C104.2 105.73, 110.47 98.51, 120.23 87.29 M102.91 113.31 C106.77 108.86, 110.64 104.41, 119.96 93.68 M102.91 113.31 C106.55 109.12, 110.19 104.93, 119.96 93.68 M108.55 112.91 C112.8 108.02, 117.05 103.14, 120.36 99.33 M108.55 112.91 C112.92 107.88, 117.29 102.86, 120.36 99.33 M113.54 113.27 C115.53 110.98, 117.52 108.69, 120.1 105.72 M113.54 113.27 C115.85 110.61, 118.16 107.96, 120.1 105.72" stroke="#40c057" stroke-width="0.5" fill="none"></path><path d="M0 0 C38.07 0, 76.13 0, 118.09 0 M0 0 C40.95 0, 81.9 0, 118.09 0 M118.09 0 C118.09 40.19, 118.09 80.37, 118.09 111.19 M118.09 0 C118.09 23.62, 118.09 47.23, 118.09 111.19 M118.09 111.19 C71.22 111.19, 24.36 111.19, 0 111.19 M118.09 111.19 C71.7 111.19, 25.31 111.19, 0 111.19 M0 111.19 C0 76.92, 0 42.66, 0 0 M0 111.19 C0 80.15, 0 49.11, 0 0" stroke="#000000" stroke-width="1" fill="none"></path></g><g transform="translate(475.1551532830034 452.142029074922) rotate(0 49.75196075439453 10)"><text x="49.75196075439453" y="0" font-family="Virgil, Segoe UI Emoji" font-size="16px" fill="#000000" text-anchor="middle" style="white-space: pre;" direction="ltr" dominant-baseline="text-before-edge">Subscriptions</text></g><g stroke-linecap="round"><g transform="translate(1043.403076884475 462.6241504302793) rotate(0 -228.91120924185424 -7.0912177790854685)"><path d="M0 0 C-157.49 -4.88, -314.98 -9.76, -457.82 -14.18 M0 0 C-133.7 -4.14, -267.41 -8.28, -457.82 -14.18" stroke="#000000" stroke-width="1" fill="none"></path></g><g transform="translate(1043.403076884475 462.6241504302793) rotate(0 -228.91120924185424 -7.0912177790854685)"><path d="M-429.33 -23.57 C-439.13 -20.34, -448.93 -17.11, -457.82 -14.18 M-429.33 -23.57 C-437.65 -20.83, -445.97 -18.08, -457.82 -14.18" stroke="#000000" stroke-width="1" fill="none"></path></g><g transform="translate(1043.403076884475 462.6241504302793) rotate(0 -228.91120924185424 -7.0912177790854685)"><path d="M-429.96 -3.05 C-439.55 -6.88, -449.13 -10.71, -457.82 -14.18 M-429.96 -3.05 C-438.1 -6.3, -446.24 -9.55, -457.82 -14.18" stroke="#000000" stroke-width="1" fill="none"></path></g></g><mask></mask><g mask="url(#mask-4Gvib91sYXnvG8_ghxKEa)" stroke-linecap="round"><g transform="translate(464.86319930365886 463.3434634220698) rotate(0 -125.17210744586822 -71.43813185359113)"><path d="M0 0 C-52.49 -29.96, -104.99 -59.92, -250.34 -142.88 M0 0 C-91.75 -52.36, -183.5 -104.73, -250.34 -142.88" stroke="#000000" stroke-width="1" fill="none"></path></g><g transform="translate(464.86319930365886 463.3434634220698) rotate(0 -125.17210744586822 -71.43813185359113)"><path d="M-220.77 -137.81 C-226.97 -138.88, -233.18 -139.94, -250.34 -142.88 M-220.77 -137.81 C-231.61 -139.67, -242.45 -141.52, -250.34 -142.88" stroke="#000000" stroke-width="1" fill="none"></path></g><g transform="translate(464.86319930365886 463.3434634220698) rotate(0 -125.17210744586822 -71.43813185359113)"><path d="M-230.95 -119.99 C-235.01 -124.79, -239.08 -129.59, -250.34 -142.88 M-230.95 -119.99 C-238.06 -128.38, -245.16 -136.77, -250.34 -142.88" stroke="#000000" stroke-width="1" fill="none"></path></g></g><mask id="mask-4Gvib91sYXnvG8_ghxKEa"><rect x="0" y="0" fill="#fff" width="815.2074141953954" height="706.2197271292521"></rect><rect x="304.10906060779064" y="382.70533156847887" fill="#000" width="71.1640625" height="18.4" opacity="1"></rect></mask><g transform="translate(304.10906060779064 382.70533156847887) rotate(0 35.58203125 9.199999999999818)"><text x="35.58203125" y="0" font-family="Helvetica, Segoe UI Emoji" font-size="16px" fill="#000000" text-anchor="middle" style="white-space: pre;" direction="ltr" dominant-baseline="text-before-edge">generates</text></g><g stroke-linecap="round"><g transform="translate(1039.758477321006 380.21489595068306) rotate(0 -130.64888022485192 -51.941236745956985)"><path d="M0 0 C-93.35 -37.11, -186.7 -74.22, -261.3 -103.88 M0 0 C-100.27 -39.86, -200.54 -79.73, -261.3 -103.88" stroke="#000000" stroke-width="1" fill="none"></path></g><g transform="translate(1039.758477321006 380.21489595068306) rotate(0 -130.64888022485192 -51.941236745956985)"><path d="M-231.31 -103 C-242.02 -103.32, -252.74 -103.63, -261.3 -103.88 M-231.31 -103 C-242.82 -103.34, -254.33 -103.68, -261.3 -103.88" stroke="#000000" stroke-width="1" fill="none"></path></g><g transform="translate(1039.758477321006 380.21489595068306) rotate(0 -130.64888022485192 -51.941236745956985)"><path d="M-238.89 -83.93 C-246.9 -91.06, -254.9 -98.19, -261.3 -103.88 M-238.89 -83.93 C-247.49 -91.59, -256.09 -99.24, -261.3 -103.88" stroke="#000000" stroke-width="1" fill="none"></path></g></g><mask></mask><g transform="translate(73.94056783757947 58.369626483948196) rotate(0 71.0595703125 20.700000000000045)"><text x="71.0595703125" y="0" font-family="Helvetica, Segoe UI Emoji" font-size="36px" fill="#000000" text-anchor="middle" style="white-space: pre;" direction="ltr" dominant-baseline="text-before-edge">Sandbox</text></g></svg>