<?xml version="1.0" standalone="no"?>
<!DOCTYPE svg PUBLIC "-//W3C//DTD SVG 20010904//EN"
 "http://www.w3.org/TR/2001/REC-SVG-20010904/DTD/svg10.dtd">
<svg version="1.0" xmlns="http://www.w3.org/2000/svg"
 width="672.000000pt" height="672.000000pt" viewBox="0 0 672.000000 672.000000"
 preserveAspectRatio="xMidYMid meet">
<metadata>
Created by potrace 1.14, written by Peter Selinger 2001-2017
</metadata>
<g transform="translate(0.000000,672.000000) scale(0.100000,-0.100000)"
fill="#000000" stroke="none">
<path d="M1220 5732 c-8 -3 -21 -13 -30 -22 -8 -10 -55 -51 -105 -91 -49 -41
-95 -78 -101 -84 -6 -5 -33 -28 -60 -50 -26 -22 -58 -49 -70 -60 -12 -11 -42
-36 -65 -55 -24 -19 -51 -43 -61 -52 -10 -10 -20 -18 -23 -18 -3 0 -13 -8 -23
-17 -10 -10 -37 -34 -61 -53 -23 -19 -55 -46 -71 -60 -16 -14 -41 -35 -57 -47
-15 -12 -43 -36 -61 -52 -18 -17 -35 -31 -37 -31 -2 0 -17 -12 -32 -26 -15
-14 -46 -40 -67 -58 -22 -17 -46 -38 -55 -46 -15 -14 -16 -117 -15 -1090 1
-591 2 -1077 3 -1080 1 -5 3073 -6 3108 -1 8 1 11 376 11 1499 l0 1499 -1056
0 c-581 0 -1064 -2 -1072 -5z"/>
<path d="M3709 4485 c-1 -61 0 -2677 0 -2721 l1 -31 1398 1 1397 1 3 1400 2
1401 -1400 0 -1400 0 -1 -51z"/>
<path d="M2163 2320 c-17 -5 -18 -34 -18 -600 l1 -595 37 -1 c20 0 40 -3 43
-7 3 -3 17 -2 30 3 15 6 26 6 30 -1 3 -5 11 -6 17 -2 14 9 176 9 200 0 10 -4
17 -3 17 1 0 8 63 8 77 -1 6 -4 13 -4 16 0 9 8 181 8 195 -1 6 -3 13 -3 16 2
2 4 31 6 63 5 66 -4 63 -4 159 -2 40 1 77 -2 83 -5 6 -4 11 -4 11 1 0 9 157 9
166 0 4 -3 15 -2 25 3 17 10 18 40 17 605 0 434 -3 595 -12 596 -49 4 -1159 3
-1173 -1z"/>
</g>
</svg>
